<svg xmlns="http://www.w3.org/2000/svg" width="1847" height="1847">
  <path fill="#f6f5f4" d="M229 0h1400l36 8a258 258 0 0 1 177 177l5 22v1415c-9 35-12 52-33 85a275 275 0 0 1-176 125c-44 10-90 8-134 8H335c-22 0-53 1-75-1q-68-6-127-41A273 273 0 0 1 6 1603c-5-39-3-84-3-124V310c0-25-1-55 2-79C18 123 87 37 193 7zm1413 1803h3c46-12 107-51 133-91 22-26 41-75 45-109q6-59 5-117V340q1-47-1-93c-8-102-72-187-171-214-45-12-81-11-128-11H368q-66-1-131 3c-55 5-117 38-152 81q-46 55-54 126c-4 32-3 59-3 91v495l1 498v166q-1 49 1 97a248 248 0 0 0 225 232c21 3 62 2 84 2h1169c52 0 84 2 134-10"/>
  <path fill="#f6f5f4" d="M1057 238c31-2 79-2 110 0 108 4 254-23 326 75 11 21 19 38 21 63l1 25c1 81-50 128-121 151-57 19-114 17-173 19l-1 115c0 28-4 79 16 101 11 13 51 13 68 14q1 11-2 21c-8 6-128 1-146 1l-67 2c-7 0-29 2-34-3q-2-9-1-17c22-8 68-6 76-32 9-29 6-75 6-106V395l-1-86c-3-55-35-49-79-51zm162 34v149l1 89v33c47 2 101 3 143-20q37-22 52-61c28-70 7-176-77-194q-38-8-76-6c-18 1-27 3-43 10m-520-36c20-4 22-5 30 13 19 46 34 93 53 139 17 43 37 86 51 131l34 84 17 41 10 28c13 32 31 95 51 121 17 6 41 7 58 9 0 13 4 23-13 23-74-3-148 1-222 0v-23c27-3 75 3 66-40-7-33-24-68-33-101l-12-35-75-1c-40-2-100-7-139 0-5 10-10 27-14 39q-19 49-32 101l12 26c21 10 42 9 65 11q1 12-2 21c-20 5-73 0-97 0-19 0-71 4-86 1-4-6-3-19-2-26 51 7 64-10 82-56l10-25c37-91 66-184 105-274q32-78 62-157 9-26 21-50M588 593q48 4 95 3l95-1c-3-22-83-237-94-249-14 28-29 70-40 101-18 45-42 100-56 146m563 407c17-2 53 0 71 1q-1 149 1 297 2 168-1 336l-64-1c-25 0-46 3-71 0-3-83 4-176 0-259l49-1c2-39 1-74 0-113v-164c1-16 1-82 3-94q5-3 12-2m-514 0 84-1c-3 21-2 52-1 74l1 146c1 52-3 101-2 154l52 1q-2 38-1 77v117l-1 65H636v-562c0-11-2-65 1-71m674 0h4c6 8 0 329 3 373l49 1c-2 26-1 63-1 89l1 170h-64q-30 2-61 0v-567c0-15-1-50 1-63 6-4 56-3 68-3m-766 0 71-1-1 79v138l1 418-49-1h-73v-259l47-1v-96l-1-201c0-10 0-67 2-75zm296 0c8-1 20-3 26 2l1 38v73l1 260 52 1v260c-16-1-125 1-130-2-5-13-3-77-3-95l2-159v-2c6-4 34-2 46-4h2c8-16-1-225 3-256 3-27-4-85 0-116m172 1h4q3 3 3 9l-1 62 1 138v163l51 1c-2 86 0 172-2 259H939c-2-84-1-175 0-259q26 1 53-2v-370zm-614 371 1-264v-67c0-10-4-35 5-41 6 0 16-1 22 2 3 3 3 2 3 6v366l45-1q-2 46-1 90v171l-77-1h-47v-187c0-10 1-59-1-67l1-3q9-5 19-2zm1031-372h28c-2 27-1 70-1 99v188c0 24 2 63 0 87h51c-3 24-1 61-1 86v174c-11 1-32 0-43-1l-76 1c-2-18-2-57-3-76l2-184 40-1v-295c0-13-2-71 3-78m152 2h25v631h-63q-9 1-16-1c-4-6-2-232-2-258l52-1 1-40v-80l1-238zM332 1377c-2 11-1 56-1 69v134c0 6 3 53-4 53-14-1-66 3-76-2-2-18-1-65-1-84v-536c0-14 18-10 27-9v342l-1 29c9 0 52 0 55 3z"/>
</svg>
