<svg xmlns="http://www.w3.org/2000/svg" width="547.8" height="547.1" viewBox="-72 59 548 547">
  <path fill="#f6f6f4" d="M-25 602q-18-7-30-21-13-15-16-34V151l-1-17 1-12 2-10q7-21 23-35 17-14 38-17l27-1h355l33 1q31 2 51 26l3 4q7 9 10 20l2 8c4 5 3 38 3 45v354l-1 25q-3 31-28 50c-20 15-34 14-58 14H23c-10 0-41 1-48-4" style="stroke-width:1"/>
  <path fill="#171716" d="M7 66h378l26 1q21 4 37 19 20 22 19 51v388l-1 21q-3 20-17 33c-16 16-33 19-54 19H10l-21-1q-20-3-34-17a62 62 0 0 1-20-45V147l1-25A65 65 0 0 1-8 67z" style="stroke-width:1"/>
  <path fill="#f6f6f4" d="M244 116h47c25 0 64-2 86 12q14 9 19 26l1 13c3 32-26 48-54 53l-26 2q-8 0-18 1v37c-1 9-1 24 5 30 5 5 16 5 23 5l-1 7h-48l-18 1h-17l1-7c18-2 26-2 27-24l-1-90v-46c-2-14-15-13-26-13z" style="stroke-width:1"/>
  <path fill="#171716" d="m314 124 24 2c26 5 33 33 28 56-3 13-10 19-20 26l-8 3q-14 4-29 3c-1 0-10 0-10-2l-1-21v-37c0-5-1-24 1-27 3-2 11-2 15-3" style="stroke-width:1"/>
  <path fill="#f6f6f4" d="M125 116h6c4 5 8 15 10 21l9 24 10 21 22 55 19 47c5 12 13 11 25 11v8l-45-1-23 1-10-1v-7c7 0 21 1 21-9 1-7-5-19-8-27-1-2-6-20-8-20h-26l-29-1-15 1a234 234 0 0 0-15 45c1 15 20 8 23 12l1 3-1 3-3 1-23-1H30v-7c7 0 14 1 20-5s19-39 22-49l4-12 19-44 10-24 12-30 6-13z" style="stroke-width:1"/>
  <path fill="#171716" d="M119 151c4 3 30 73 31 79h-32l-31-1q3-10 8-20l8-22 10-22z" style="stroke-width:1"/>
  <path fill="#f6f6f4" d="M275 358h25l-1 31v167h-45v-81l16-1 1-16V358zM103 358h28v116l17 1v58l-1 23h-44l-1-19V358zM306 358h25v117h17v11l-1 20v50h-41V358M71 358h24l1 13v169l-1 16H55v-81l15-1c2-1 1-11 1-13V358M174 358h6v28l1 52v36l17 1v81h-44l1-81 15-1 1-13v-83l1-19zM222 358h9v98l1 18 16 1v81h-44v-72l1-9h17V358M23 358h10v86l1 30 14 1v81H7v-81l16-1V358M369 358h9v95l1 21 16 1v81h-41v-81l14-1v-87zM425 358c5 0 3 11 3 14v110l1 43-1 30-23 1h-4v-32l1-49h17v-99l1-18zM-25 358h7v100l1 16 17 1v80l-2 1h-24l-1-3V374q-1-9 2-16" style="stroke-width:1"/>
</svg>
